<?xml version="1.0" encoding="UTF-8" standalone="no"?>
<!-- Created with Inkscape (http://www.inkscape.org/) -->

<svg
   xmlns:dc="http://purl.org/dc/elements/1.1/"
   xmlns:cc="http://creativecommons.org/ns#"
   xmlns:rdf="http://www.w3.org/1999/02/22-rdf-syntax-ns#"
   xmlns:svg="http://www.w3.org/2000/svg"
   xmlns="http://www.w3.org/2000/svg"
   xmlns:sodipodi="http://sodipodi.sourceforge.net/DTD/sodipodi-0.dtd"
   xmlns:inkscape="http://www.inkscape.org/namespaces/inkscape"
   version="1.1"
   id="svg2"
   width="491.23611"
   height="912"
   viewBox="0 0 491.23611 912"
   sodipodi:docname="univesp_logo.svg"
   inkscape:version="0.92.4 (5da689c313, 2019-01-14)">
  <metadata
     id="metadata8">
    <rdf:RDF>
      <cc:Work
         rdf:about="">
        <dc:format>image/svg+xml</dc:format>
        <dc:type
           rdf:resource="http://purl.org/dc/dcmitype/StillImage" />
        <dc:title></dc:title>
      </cc:Work>
    </rdf:RDF>
  </metadata>
  <defs
     id="defs6" />
  <sodipodi:namedview
     pagecolor="#ffffff"
     bordercolor="#666666"
     borderopacity="1"
     objecttolerance="10"
     gridtolerance="10"
     guidetolerance="10"
     inkscape:pageopacity="0"
     inkscape:pageshadow="2"
     inkscape:window-width="1920"
     inkscape:window-height="1001"
     id="namedview4"
     showgrid="false"
     inkscape:pagecheckerboard="true"
     inkscape:zoom="0.6675088"
     inkscape:cx="126.45723"
     inkscape:cy="521.21926"
     inkscape:window-x="-9"
     inkscape:window-y="-9"
     inkscape:window-maximized="1"
     inkscape:current-layer="svg2"
     fit-margin-top="0"
     fit-margin-left="0"
     fit-margin-right="0"
     fit-margin-bottom="0" />
  <path
     style="fill:#d13239;fill-opacity:1"
     d="M 162.65272,905.25 C 162.02216,901.5375 125.16734,696.45 80.75312,449.5 L 0,0.5 37.96388,0.23797 c 20.88014,-0.144116 38.11403,-0.111886 38.29754,0.07162 0.1835,0.183508 28.46278,172.42642 62.84284,382.76203 34.38005,210.33561 62.7212,382.99088 62.98032,383.67838 0.36687,0.97335 10.00163,1.25 43.53391,1.25 33.53228,0 43.16704,-0.27665 43.53391,-1.25 0.25912,-0.6875 28.60027,-173.34277 62.98032,-383.67838 34.38006,-210.33561 62.65934,-382.578521 62.84284,-382.762029 0.18351,-0.183509 17.4172,-0.215739 38.2971,-0.07162 L 491.2361,0.500001 410.48419,449.5 c -44.41355,246.95 -81.26817,452.0375 -81.89915,455.75 l -1.14725,6.75 h -81.8193 -81.8193 z m 39.66676,-622 C 178.79459,128.8375 159.56305,1.9375 159.58272,1.25 159.61102,0.259967 177.50423,0 245.61849,0 c 68.11439,0 86.00739,0.259965 86.03552,1.25 0.0776,2.73103 -85.53634,562.75 -86.03145,562.75 -0.2918,0 -19.77818,-126.3375 -43.30308,-280.75 z"
     id="path817"
     inkscape:connector-curvature="0" />
</svg>
